HIERARCHY
ROOT Hips
{
	OFFSET -14.64140 90.27770 -84.91600
	CHANNELS 6 Xposition Yposition Zposition Zrotation Xrotation Yrotation
	JOINT Spine
	{
		OFFSET 0.00000 13.20850 -1.60436
		CHANNELS 3 Zrotation Xrotation Yrotation
		JOINT Spine1
		{
			OFFSET 0.00000 8.61716 0.00000
			CHANNELS 3 Zrotation Xrotation Yrotation
			JOINT Spine2
			{
				OFFSET 0.00000 8.61717 0.00000
				CHANNELS 3 Zrotation Xrotation Yrotation
				JOINT Spine3
				{
					OFFSET 0.00000 8.61717 0.00000
					CHANNELS 3 Zrotation Xrotation Yrotation
					JOINT Neck
					{
						OFFSET 0.00000 11.07920 1.10792
						CHANNELS 3 Zrotation Xrotation Yrotation
						JOINT Neck1
						{
							OFFSET 0.00000 7.08032 0.00000
							CHANNELS 3 Zrotation Xrotation Yrotation
							JOINT Head
							{
								OFFSET 0.00000 7.08031 0.00000
								CHANNELS 3 Zrotation Xrotation Yrotation
								End site
								{
									OFFSET 0.00000 0.00000 0.00000
								}
							}
						}
					}
					JOINT RightShoulder
					{
						OFFSET -0.01000 7.91373 5.19711
						CHANNELS 3 Zrotation Xrotation Yrotation
						JOINT RightArm
						{
							OFFSET -18.41580 0.00000 0.00000
							CHANNELS 3 Zrotation Xrotation Yrotation
							JOINT RightForeArm
							{
								OFFSET -29.11090 0.00000 0.00000
								CHANNELS 3 Zrotation Xrotation Yrotation
								JOINT RightHand
								{
									OFFSET -24.65040 0.00000 0.00000
									CHANNELS 3 Zrotation Xrotation Yrotation
									JOINT RightHandThumb1
									{
										OFFSET -5.35114 -0.85590 3.97906
										CHANNELS 3 Zrotation Xrotation Yrotation
										JOINT RightHandThumb2
										{
											OFFSET -4.52789 0.00000 0.00000
											CHANNELS 3 Zrotation Xrotation Yrotation
											JOINT RightHandThumb3
											{
												OFFSET -2.46976 0.00000 0.00000
												CHANNELS 3 Zrotation Xrotation Yrotation
												End site
												{
													OFFSET 0.00000 0.00000 0.00000
												}
											}
										}
									}
									JOINT RightHandIndex1
									{
										OFFSET -14.26970 0.00000 2.88139
										CHANNELS 3 Zrotation Xrotation Yrotation
										JOINT RightHandIndex2
										{
											OFFSET -5.48836 0.00000 0.00000
											CHANNELS 3 Zrotation Xrotation Yrotation
											JOINT RightHandIndex3
											{
												OFFSET -3.01859 0.00000 0.00000
												CHANNELS 3 Zrotation Xrotation Yrotation
												End site
												{
													OFFSET 0.00000 0.00000 0.00000
												}
											}
										}
									}
									JOINT RightHandMiddle1
									{
										OFFSET -14.26970 0.00000 -0.09147
										CHANNELS 3 Zrotation Xrotation Yrotation
										JOINT RightHandMiddle2
										{
											OFFSET -6.17441 0.00000 0.00000
											CHANNELS 3 Zrotation Xrotation Yrotation
											JOINT RightHandMiddle3
											{
												OFFSET -3.56743 0.00000 0.00000
												CHANNELS 3 Zrotation Xrotation Yrotation
												End site
												{
													OFFSET 0.00000 0.00000 0.00000
												}
											}
										}
									}
									JOINT RightHandRing1
									{
										OFFSET -12.69180 0.00000 -3.06433
										CHANNELS 3 Zrotation Xrotation Yrotation
										JOINT RightHandRing2
										{
											OFFSET -5.62556 0.00000 0.00000
											CHANNELS 3 Zrotation Xrotation Yrotation
											JOINT RightHandRing3
											{
												OFFSET -3.56744 0.00000 0.00000
												CHANNELS 3 Zrotation Xrotation Yrotation
												End site
												{
													OFFSET 0.00000 0.00000 0.00000
												}
											}
										}
									}
									JOINT RightHandPinky1
									{
										OFFSET -11.11390 0.00000 -6.03719
										CHANNELS 3 Zrotation Xrotation Yrotation
										JOINT RightHandPinky2
										{
											OFFSET -4.52789 0.00000 0.00000
											CHANNELS 3 Zrotation Xrotation Yrotation
											JOINT RightHandPinky3
											{
												OFFSET -2.46976 0.00000 0.00000
												CHANNELS 3 Zrotation Xrotation Yrotation
												End site
												{
													OFFSET 0.00000 0.00000 0.00000
												}
											}
										}
									}
								}
							}
						}
					}
					JOINT LeftShoulder
					{
						OFFSET 0.01000 7.91373 5.19711
						CHANNELS 3 Zrotation Xrotation Yrotation
						JOINT LeftArm
						{
							OFFSET 18.41580 0.00000 0.00000
							CHANNELS 3 Zrotation Xrotation Yrotation
							JOINT LeftForeArm
							{
								OFFSET 29.11090 0.00000 0.00000
								CHANNELS 3 Zrotation Xrotation Yrotation
								JOINT LeftHand
								{
									OFFSET 24.65040 0.00000 0.00000
									CHANNELS 3 Zrotation Xrotation Yrotation
									JOINT LeftHandThumb1
									{
										OFFSET 5.35114 -0.85590 3.97906
										CHANNELS 3 Zrotation Xrotation Yrotation
										JOINT LeftHandThumb2
										{
											OFFSET 4.52789 0.00000 0.00000
											CHANNELS 3 Zrotation Xrotation Yrotation
											JOINT LeftHandThumb3
											{
												OFFSET 2.46977 0.00000 0.00000
												CHANNELS 3 Zrotation Xrotation Yrotation
												End site
												{
													OFFSET 0.00000 0.00000 0.00000
												}
											}
										}
									}
									JOINT LeftHandIndex1
									{
										OFFSET 14.26970 0.00000 2.88139
										CHANNELS 3 Zrotation Xrotation Yrotation
										JOINT LeftHandIndex2
										{
											OFFSET 5.48836 0.00000 0.00000
											CHANNELS 3 Zrotation Xrotation Yrotation
											JOINT LeftHandIndex3
											{
												OFFSET 3.01859 0.00000 0.00000
												CHANNELS 3 Zrotation Xrotation Yrotation
												End site
												{
													OFFSET 0.00000 0.00000 0.00000
												}
											}
										}
									}
									JOINT LeftHandMiddle1
									{
										OFFSET 14.26970 0.00000 -0.09147
										CHANNELS 3 Zrotation Xrotation Yrotation
										JOINT LeftHandMiddle2
										{
											OFFSET 6.17440 0.00000 0.00000
											CHANNELS 3 Zrotation Xrotation Yrotation
											JOINT LeftHandMiddle3
											{
												OFFSET 3.56744 0.00000 0.00000
												CHANNELS 3 Zrotation Xrotation Yrotation
												End site
												{
													OFFSET 0.00000 0.00000 0.00000
												}
											}
										}
									}
									JOINT LeftHandRing1
									{
										OFFSET 12.69180 0.00000 -3.06433
										CHANNELS 3 Zrotation Xrotation Yrotation
										JOINT LeftHandRing2
										{
											OFFSET 5.62556 0.00000 0.00000
											CHANNELS 3 Zrotation Xrotation Yrotation
											JOINT LeftHandRing3
											{
												OFFSET 3.56744 0.00000 0.00000
												CHANNELS 3 Zrotation Xrotation Yrotation
												End site
												{
													OFFSET 0.00000 0.00000 0.00000
												}
											}
										}
									}
									JOINT LeftHandPinky1
									{
										OFFSET 11.11390 0.00000 -6.03719
										CHANNELS 3 Zrotation Xrotation Yrotation
										JOINT LeftHandPinky2
										{
											OFFSET 4.52789 0.00000 0.00000
											CHANNELS 3 Zrotation Xrotation Yrotation
											JOINT LeftHandPinky3
											{
												OFFSET 2.46976 0.00000 0.00000
												CHANNELS 3 Zrotation Xrotation Yrotation
												End site
												{
													OFFSET 0.00000 0.00000 0.00000
												}
											}
										}
									}
								}
							}
						}
					}
					JOINT pCube4
					{
						OFFSET 0.00000 10.91090 1.10792
						CHANNELS 3 Zrotation Xrotation Yrotation
						End site
						{
							OFFSET 0.00000 0.00000 0.00000
						}
					}
				}
			}
		}
	}
	JOINT RightUpLeg
	{
		OFFSET -9.98441 0.00000 0.00000
		CHANNELS 3 Zrotation Xrotation Yrotation
		JOINT RightLeg
		{
			OFFSET 0.00000 -42.11790 0.00000
			CHANNELS 3 Zrotation Xrotation Yrotation
			JOINT RightFoot
			{
				OFFSET 0.00000 -45.00020 -0.00001
				CHANNELS 3 Zrotation Xrotation Yrotation
				JOINT RightForeFoot
				{
					OFFSET 0.00000 -3.74820 0.00000
					CHANNELS 3 Zrotation Xrotation Yrotation
					JOINT RightToeBase
					{
						OFFSET 0.00000 0.06325 14.43120
						CHANNELS 3 Zrotation Xrotation Yrotation
						End site
						{
							OFFSET 0.00000 0.00000 0.00000
						}
					}
				}
			}
		}
	}
	JOINT LeftUpLeg
	{
		OFFSET 9.98441 0.00000 0.00000
		CHANNELS 3 Zrotation Xrotation Yrotation
		JOINT LeftLeg
		{
			OFFSET 0.00000 -42.11800 0.00000
			CHANNELS 3 Zrotation Xrotation Yrotation
			JOINT LeftFoot
			{
				OFFSET 0.00000 -45.00070 0.00000
				CHANNELS 3 Zrotation Xrotation Yrotation
				JOINT LeftForeFoot
				{
					OFFSET 0.00000 -3.74824 0.00000
					CHANNELS 3 Zrotation Xrotation Yrotation
					JOINT LeftToeBase
					{
						OFFSET 0.00000 0.06325 14.43110
						CHANNELS 3 Zrotation Xrotation Yrotation
						End site
						{
							OFFSET 0.00000 0.00000 0.00000
						}
					}
				}
			}
		}
	}
}
MOTION
Frames: 4
Frame Time: 0.050000
0.032090526426821246 -0.0018788171097912543 0.0004028359382449924 -0.016512911703444284 0.02497525046086002 0.0017595488071472914 -2.749198628706618 0.4501338968934433 -0.7573833281749154 -0.9633836362201638 3.517645195503517 0.350831079280393 -0.9241520840445953 -2.039523000199153 -2.587876427709275 -0.8074139957252289 0.32578562107942544 -1.025581916369923 -2.233953020015699 12.319525012732832 5.9931523752231115 -0.058987481374503666 0.09112610929373777 13.396822379542659 -1.8782592075911095 -14.575916653059314 1.1539476337129413 -2.798165709839578 1.4317065278452192 -13.441150667235382 69.86409215787724 28.886902252969296 0.3050361622601569 8.130517121155037 -0.9080547142407076 84.4516221401043 17.93735935742608 -0.42303262365183936 -3.900116903137555 4.550697992183945 -0.13925411562209583 -1.5879096573902658 0.03992257104957286 -0.007652798329098803 -56.24551432550327 0.01399875553380654 -3.937638718717903e-05 -56.25174643610309 -38.748942911606285 -0.004450430382158459 -0.0172564720040343 -0.025321049575279572 -0.031237994386469015 -0.04691354594662934 0.033162315889895426 -0.013801409854780265 -0.0013703231204444122 -36.650715990878986 0.03901265786657695 0.008432977868814254 0.032175619487717355 0.0035721852984575402 0.0012304504861432235 0.04873856858006081 0.009233727348202552 -0.016184240869389695 -19.764756229546677 0.03416839058211688 -0.043515079365091094 -0.031747105250979415 0.017334118882285005 -0.019349716805434465 -0.01096401275572126 0.04799121444923514 0.04163002567184039 24.07148188266089 -0.04763915384230989 -0.042185259525802786 28.889643128078497 0.025716411874796924 0.008200385681055031 28.907554706746843 -0.013355984825003785 0.002158185450156651 9.824481053637816 2.044589542666596 12.306812959256769 -69.0942498815272 15.810758141442395 -23.079256119381526 -20.37670858530374 -12.294181867878105 -77.75425668872474 -5.952986289813259 -2.9086936097004776 0.21328819946143213 -0.5054045825537634 0.04563136585045062 -8.151722316388879 0.03105557753239117 -0.005636751080544287 44.57379211304388 0.022868444931621087 -0.048525661173418284 44.55601509434524 12.481994602432666 0.03146418571896074 -0.02518848760594592 0.009250440680769785 0.04765441396805751 -0.00875623046789572 0.013366313292743997 0.0305151493694085 0.020464400402345397 11.084526038353172 -0.042659769727169006 0.015525475862654388 0.043969446784619226 0.0036473698178549224 0.04515235520513143 0.028545260816773 0.00844761945489695 -0.002641056657733753 4.7976142790888865 -0.00456402621875897 -0.0031982771717227053 -3.1873920105225874e-05 -0.0006503041502829185 0.046362101255846735 -0.044719219956192865 -0.004430871710827606 -0.037265349899696106 -5.5559781923942255 -0.021554465957538863 0.012798593251054313 -6.677852562333541 0.029916741782189914 0.03284689959986361 -6.730301187327312 -0.04089129614216328 0.03448484913425125 0.002497582523419151 0.008868256822280545 -0.03122643222237171 8.059054006680887 3.489003786842961 -19.1864648341622 -0.019456694348088093 10.390938242310689 -0.005693115100623283 -5.585506599089983 -15.627144836259683 3.2336611244050903 0.02605690939957463 0.04170684223026782 -0.02198205538488098 -0.004495088959583844 4.72235271049505 0.03565156293921837 12.424006070965502 -8.217566731083405 6.902513984198236 0.0486226819457855 46.33107237485694 -0.011535085805555746 -4.284447025066838 -14.7803674492678 -3.811098493939937 0.015623742060724444 0.023099977842623555 0.023917456208137677 -0.018383018913149092 -10.762250607823825 -0.028660899523500233 
0.015048616595489112 0.02151492756241856 -0.04589059566939138 0.022189513578578558 0.0041469236490994784 -0.008334561358417182 -2.702901896165484 0.5446329710040126 -0.768710295476479 -1.0131550677711685 3.520342628597439 0.38122092896987736 -0.9113506825800058 -2.01869941909609 -2.7586731535727242 -0.8404717299785727 0.27191922473591135 -0.9794407320546921 -2.2404514286391106 12.264529718165663 5.878592734309719 -0.1035488177332833 0.05650063127005504 13.31013576783641 -1.9033018821824261 -14.646168915172094 1.1685157759959763 -2.782787340585935 1.4440673304570566 -13.334180940960346 69.77042748812015 28.4000403001289 0.72416809720577 9.009266330288117 -0.5631066988421941 83.38900958098749 18.0706246502925 -0.416487020464746 -4.0792422483020765 4.536471173307528 -0.15150887159991597 -1.57376983186493 -0.02322231487791983 0.03913645724586656 -56.278935011936376 0.016432536999244577 0.025375842942861923 -56.250901608419866 -38.77290252610409 -0.017716177614350202 0.02678392425482814 0.02744712385969069 0.021766511367444584 0.02761298325758876 0.007523295561588608 -0.047293848099098486 0.010208383693508436 -36.72231602860109 0.013254985763524962 -0.02339101530097577 0.009721405695987968 -0.008427470347220578 -0.008796571946083489 -0.0006841524151023604 0.04031125241600035 0.012238839982907894 -19.801626156934105 -0.04463187874173132 0.010821631858084647 -0.014401851078470012 0.014995652645223567 -0.04512834273916858 0.025583184854370195 0.019800148950951054 0.009783809174072905 24.089388608878796 -0.016989394840939545 0.009426278524123073 28.860682005530343 0.0073405600695818285 -0.0028456357303821346 28.91319888893859 0.01558739162732409 0.01714565926623708 10.030757741211849 2.164286016548034 12.164191583297086 -68.30325052449624 15.52682700939817 -24.674423622293457 -17.18076026300208 -13.236964621443402 -76.98105728261305 -5.773181083367523 -2.8540570535998566 0.5105701450502079 -0.47466642063735803 0.05101270056833215 -8.085045600007867 -0.013566650283986367 -0.03311522499008224 44.57612818226942 -0.022612631879659655 -0.010552354662344738 44.57787411253672 12.444943733120182 -0.01187173224472106 0.0022483234547118385 -0.01964859067791581 -0.040790568453508376 -0.01707806530309691 0.021401922312587383 0.015020922662641498 0.011019740756790006 11.07134725504735 0.04571446976294484 -0.04200319419783308 -0.04242728112759424 -0.015657771414131216 0.01684936479792766 0.01972788664263368 -0.03621783159993514 -0.018960345344347627 4.815817467963429 -0.022757212052081345 -0.04392283575862013 0.025600935792467177 -0.04583618335956029 -0.009971823191293775 -0.010555316396667883 -0.024925636584615156 -0.04923508479287588 -5.608557366799825 -0.045891411841410615 0.035604305882632546 -6.765362700121542 0.03173701958045457 -0.021402161165110973 -6.724400712326809 0.016959715151357718 0.011460396342575693 -0.013307078127879497 -0.02982142797184393 0.0022661189828752184 8.094345624447103 3.5196353499859145 -19.226518290146156 0.024436737905436837 10.43181447447317 0.03601542941940952 -5.642077940636666 -15.630965578466103 3.21945309236007 0.037386819042013186 0.016043807829980414 -0.021756717547235255 -0.0003513410495467251 4.685309937602157 -0.024349346171752877 12.507393859533725 -8.269388474755413 6.881016552135053 -0.008430203837192174 46.353973699024976 -0.04083337764957669 -4.329700035529559 -14.780416286453306 -3.84463532591871 -0.006351800648541558 0.03447732441967933 -0.016647720072197926 0.012324622969653289 -10.720412805384075 0.0073707874376386096 
-0.006828397265061164 -0.026335062876086914 2.71389687477639e-05 0.03360366542307704 -0.011364499842052365 0.022481358097231636 -2.7076057288280486 0.5968214489629086 -0.8106816651516391 -1.028493265013527 3.469537566223074 0.36391907753293357 -0.8763792494286384 -1.981032800081318 -2.8656239539471984 -0.7060083958620846 0.29679074663375693 -1.0477518478464398 -2.2903563256616732 12.222520315875745 5.728605373570874 -0.14511772933718964 0.05526830364662911 13.035092014595879 -1.9197117168564934 -14.65065517499555 1.0919137911962649 -2.8097263075546577 1.4324221370186638 -13.205223051710144 69.59084242438728 27.987674772629276 1.4503600349007448 10.786634483825631 -0.17023295017312418 83.08174062715769 18.548239182514777 -0.4236803670768667 -4.326785925285427 4.492434492183896 -0.17244136127090076 -1.6294829550043037 0.009498821609234834 0.003831916896158952 -56.20594416662525 0.03950285397814183 -0.012312837476539619 -56.20233401388371 -38.74751896504697 0.005968551308292541 -0.01574624238900398 -0.025045445474455134 0.0469308984247866 -0.01705200069323948 -0.008497419323875656 0.005292781089185797 -0.04334972623039679 -36.68913578161406 -0.022489539241577688 0.019010259490033543 -0.024512422359005047 -0.023288816837911615 0.018150180351069335 0.009631525451147725 0.0287730975813537 -0.04778302320150944 -19.74343961431194 0.04395985146497362 -0.016947027691621666 0.028052300361506802 -0.008242756925140817 0.007350237247817391 -0.02408763693494848 -0.030947047775779023 -0.04385158210269634 24.079690519510876 -0.033104894318672994 -0.017413321847124682 28.848861084868368 0.042314081805375665 -0.008180787720252472 28.85928036867938 -0.005796414272895074 -0.01186221504813641 10.131887666368208 2.18216040063416 11.944845305681946 -67.31358150886695 15.353276647868388 -26.28596638651125 -15.630540176725347 -13.707578005501212 -75.7911333487239 -6.287852324442283 -2.856561992992625 1.098125726215322 -0.5177357664249729 0.03393925507753109 -8.136723928138013 0.004779412515768326 0.01845188897709638 44.54530367782378 0.02440942367942771 0.04978348282431383 44.59898933008319 12.418955492720551 0.015326712803998862 -0.03990989366727868 -0.04080346935467521 0.0006394508344671282 -0.014894579167219575 0.01755080712836656 -0.031040039992199443 0.030180291030014808 11.07233560822381 0.008549533386877705 0.04681778668035749 -0.04059956875841238 -0.01843521768851207 0.02692037473580067 -0.017263949714875892 0.049244322083800834 0.04830355084031018 4.76550610005394 0.0043922814480476515 0.03400562225486762 -0.018843670311651777 0.007591534700215721 -0.026844411837086024 -0.03183799678931246 0.04050627425090232 -0.01479299158674551 -5.602030404383058 -0.028598922484110504 0.001701832752473416 -6.739600390477493 -0.012833288542804924 -0.037162118321783635 -6.681997847518933 -0.034148094377597166 -0.0018724247862904376 0.002993916864620979 0.025058649226600466 0.03480236138073731 8.005228522948935 3.444215261784694 -19.171554451901695 0.013367884464211511 10.412361181794616 0.0003207682704484075 -5.620680133748503 -15.681021738215453 3.192304456725128 0.0007550268491911447 -0.047914770474467405 -0.0012813434926101425 0.0360959211579598 4.665655688267016 0.005264978006348473 12.440054272851867 -8.217771921232673 6.887534895881437 -0.026679114977948178 46.378086372680066 -0.03324379828238207 -4.317896829552605 -14.732585168646871 -3.836103110719239 0.04794236325035778 0.0013875800193629934 0.019063510444920044 -0.0019084205554546062 -10.762846858657378 -0.017196640574921162 
-0.01411152033219925 -0.024314036189507626 -0.0025362263735026116 -0.0029383282297113255 0.023018676657480985 -0.029154471607977846 -2.6685005855152863 0.6314056076457228 -0.7937045998768428 -0.9441887450696211 3.4384833140747095 0.3376283877145863 -0.887556677084685 -1.9791939475405118 -2.9601172881642515 -0.6986870837043587 0.375431602877006 -1.0078024018078235 -2.252384535105095 12.210769693614418 5.526922943911601 -0.19826035746263318 0.07127393592689689 12.60732150509761 -1.9192938675880493 -14.7920988227258 1.0773446776386144 -2.9126386269968103 1.4922785416648372 -13.158605583332154 69.29711341904517 27.3936642516474 1.929555461228166 11.823167753717286 0.1357470128569352 81.77802096483221 18.963076865888063 -0.40404648320121256 -4.570021245169539 4.553666220904903 -0.09534533977247281 -1.5434875792368385 0.03476048437693625 0.04831502110872417 -56.24958421399413 -0.030034947361280605 -0.029946101225407796 -56.199765558650235 -38.72377785773518 0.03347943746287426 0.02590691808920587 0.008445112656727392 -0.00475289237697276 0.017222113876842825 -0.020617880681182303 -0.02489772986531693 -0.03523491986505769 -36.64507322588345 0.039553651006942435 -0.0059206346423839405 -0.008561204592172163 -0.020017079432561383 -0.04338700795495967 0.009849370097855114 -0.02443966514784857 -0.031149631303928352 -19.807345546176794 -0.04627464821357982 -0.03307947330686128 0.030870837243821378 -0.016070005904223292 0.007109261622093395 0.030772475989041342 0.007736164355392415 -0.032595182896269344 24.047275564466855 0.035730367763499936 0.024597227462144634 28.85519869815391 -0.013851907969182944 -0.001029746235048588 28.907168068853796 0.013106755601747401 0.04683286379429381 10.154183157468335 2.153922190530075 11.751009812265874 -66.33602071968429 15.282589641210162 -27.366239175686058 -13.872496003377519 -14.231251180007845 -73.78173016245033 -6.797339162155753 -3.0422043848858187 1.8834198887343547 -0.43992205015491953 0.10472673051998946 -8.136089112059516 0.024065035914476045 0.010951067727891419 44.58476999613456 -0.0354128216277222 -0.012805967962031914 44.558618488233755 12.485325381116054 0.01373879945168968 0.013243227914396426 -0.042646856499750155 0.0031339899577702054 -0.03779328465954882 0.0316437020418186 0.011802016695529273 -0.013189151941467027 11.078659079787343 -0.018423064909589094 0.00880555064312734 0.04096506119242459 -0.044446248533999956 0.009607801779719408 0.021731526850665907 0.028506100663806207 -0.0055068415805838225 4.766358855661848 -0.036486649442939764 -0.034471767170921694 -0.002904329481540645 0.024702069693813448 0.03896101540716725 0.01021166394955462 -0.014470924946788876 -0.02525077073801744 -5.568506842976392 0.03969086414251241 -0.03530502901194726 -6.72610509773076 0.02275322355043749 -0.035615766081231695 -6.677282597645936 0.024836496258272393 0.015951417659659597 0.048430808257555864 -0.016411256839764604 0.0172777755083995 8.048171655121772 3.4800448396881936 -19.246263099018694 -0.0018560659283937259 10.365890235329678 0.03350442245517672 -5.572582940463399 -15.63352094236372 3.163695174152289 0.03456585500592293 -0.028810607227648385 0.02153946696402708 -0.029957630504158728 4.729895301250093 -0.010561688528648357 12.442405142667516 -8.272805760359127 6.844418254282773 -0.042856430061936006 46.41184739793436 0.026695729690655926 -4.296869863016897 -14.778079534876118 -3.850588060148803 -0.013146800014294989 0.027385706258681863 -0.034885145687856764 0.016298888982630738 -10.772183386620101 -0.012764315806526528 
